<!DOCTYPE svg PUBLIC "-//W3C//DTD SVG 1.1//EN" "http://www.w3.org/Graphics/SVG/1.1/DTD/svg11.dtd">
<!-- Uploaded to: SVG Repo, www.svgrepo.com, Transformed by: SVG Repo Mixer Tools -->
<svg fill="#0F480E" width="800px" height="800px" viewBox="-25.6 -25.6 307.20 307.20" id="Flat" xmlns="http://www.w3.org/2000/svg" transform="matrix(-1, 0, 0, 1, 0, 0)">
<g id="SVGRepo_bgCarrier" stroke-width="0">
<rect x="-25.6" y="-25.6" width="307.20" height="307.20" rx="24.576" fill="#CEF2D6" strokewidth="0"/>
</g>
<g id="SVGRepo_tracerCarrier" stroke-linecap="round" stroke-linejoin="round"/>
<g id="SVGRepo_iconCarrier"> <path d="M221.59473,82.80078,139.585,58.88086c-.01758-.00586-.03516-.01025-.05273-.01563L45.59375,31.46582A20.00127,20.00127,0,0,0,19.99414,50.667V189.333A20.03162,20.03162,0,0,0,39.9375,209.34863a20.19231,20.19231,0,0,0,5.65723-.81543L124,185.665V192a20.02229,20.02229,0,0,0,20,20h32a20.02229,20.02229,0,0,0,20-20V164.665l25.59277-7.46484A20.10248,20.10248,0,0,0,235.99414,138V102A20.101,20.101,0,0,0,221.59473,82.80078ZM43.99414,184V56L124,79.335V160.665ZM172,188H148v-9.335l24-7Zm39.99414-53-31.53027,9.19629-.04688.01367L148,153.665V86.335L211.99414,105Z"/> </g>
</svg>